<svg width="57" height="57" viewBox="0 0 57 57" fill="none" xmlns="http://www.w3.org/2000/svg">
<circle opacity="0.5" cx="28" cy="28" r="28" transform="matrix(-1 0 0 1 56.5 0.5)" stroke="white"/>
<path d="M27.1238 21.8768C27.2405 21.8122 27.3676 21.783 27.4926 21.783C27.7717 21.783 28.0394 21.932 28.1811 22.1934C28.3853 22.5737 28.2447 23.0476 27.8644 23.2518C25.9049 24.3091 22.9572 26.3837 22.1712 28.0583L36.817 28.0583C37.2483 28.0583 37.5983 28.4083 37.5983 28.8396C37.5983 29.2708 37.2483 29.6208 36.817 29.6208L22.1729 29.6208C22.9614 31.297 25.9063 33.3704 27.8644 34.4278C28.2447 34.633 28.3853 35.1059 28.1811 35.4861C27.9759 35.8653 27.4999 36.0059 27.1238 35.8028C26.4353 35.433 20.4103 32.0903 20.4103 28.8372C20.4103 25.5882 26.4353 22.2466 27.1238 21.8768Z" fill="white"/>
</svg>
