<svg width="57" height="57" viewBox="0 0 57 57" fill="none" xmlns="http://www.w3.org/2000/svg">
<circle opacity="0.5" cx="28.5" cy="28.5" r="28" stroke="white"/>
<path d="M29.8762 21.8768C29.7595 21.8122 29.6324 21.783 29.5074 21.783C29.2283 21.783 28.9606 21.932 28.8189 22.1934C28.6147 22.5737 28.7553 23.0476 29.1356 23.2518C31.0951 24.3091 34.0428 26.3837 34.8288 28.0583L20.183 28.0583C19.7517 28.0583 19.4017 28.4083 19.4017 28.8396C19.4017 29.2708 19.7517 29.6208 20.183 29.6208L34.8271 29.6208C34.0386 31.297 31.0937 33.3704 29.1356 34.4278C28.7553 34.633 28.6147 35.1059 28.8189 35.4861C29.0241 35.8653 29.5001 36.0059 29.8762 35.8028C30.5647 35.433 36.5897 32.0903 36.5897 28.8372C36.5897 25.5882 30.5647 22.2466 29.8762 21.8768Z" fill="white"/>
</svg>
