<svg width="32" height="32" viewBox="0 0 32 32" fill="none" xmlns="http://www.w3.org/2000/svg">
<path d="M27.766 16.2764C27.766 15.4607 27.6999 14.6406 27.5588 13.8381H16.24V18.459H22.7217C22.4528 19.9494 21.5885 21.2678 20.323 22.1056V25.1039H24.19C26.4609 23.0139 27.766 19.9273 27.766 16.2764Z" fill="#4285F4"/>
<path d="M16.24 28.0008C19.4764 28.0008 22.2058 26.9382 24.1944 25.1039L20.3274 22.1055C19.2516 22.8375 17.8626 23.252 16.2444 23.252C13.1138 23.252 10.4593 21.1399 9.50693 18.3003H5.51649V21.3912C7.5536 25.4434 11.7028 28.0008 16.24 28.0008Z" fill="#34A853"/>
<path d="M9.50254 18.3003C8.99987 16.8099 8.99987 15.1961 9.50254 13.7058V10.6148H5.5165C3.8145 14.0056 3.81448 18.0005 5.51649 21.3912L9.50254 18.3003Z" fill="#FBBC04"/>
<path d="M16.24 8.74966C17.9508 8.7232 19.6043 9.36697 20.8433 10.5487L24.2694 7.12262C22.1 5.0855 19.2207 3.96553 16.24 4.00081C11.7028 4.00081 7.55361 6.55824 5.5165 10.6148L9.50254 13.7058C10.4505 10.8617 13.1094 8.74966 16.24 8.74966Z" fill="#EA4335"/>
</svg>
