<svg width="24" height="24" viewBox="0 0 24 24" fill="none" xmlns="http://www.w3.org/2000/svg">
<path fill-rule="evenodd" clip-rule="evenodd" d="M10.6888 12.0001C10.6888 13.0231 9.8598 13.8521 8.8368 13.8521C7.8138 13.8521 6.9848 13.0231 6.9848 12.0001C6.9848 10.9771 7.8138 10.1481 8.8368 10.1481H8.8398C9.8618 10.1491 10.6888 10.9781 10.6888 12.0001Z" stroke="black" stroke-width="1.5" stroke-linecap="round" stroke-linejoin="round"/>
<path d="M10.6918 12.0001H17.0098V13.8521" stroke="black" stroke-width="1.5" stroke-linecap="round" stroke-linejoin="round"/>
<path d="M14.182 13.8521V12.0001" stroke="black" stroke-width="1.5" stroke-linecap="round" stroke-linejoin="round"/>
<path fill-rule="evenodd" clip-rule="evenodd" d="M2.74988 12.0001C2.74988 5.06312 5.06288 2.75012 11.9999 2.75012C18.9369 2.75012 21.2499 5.06312 21.2499 12.0001C21.2499 18.9371 18.9369 21.2501 11.9999 21.2501C5.06288 21.2501 2.74988 18.9371 2.74988 12.0001Z" stroke="black" stroke-width="1.5" stroke-linecap="round" stroke-linejoin="round"/>
</svg>
