<svg width="19" height="18" viewBox="0 0 19 18" fill="none" xmlns="http://www.w3.org/2000/svg">
<path d="M14.5923 10.835C14.3549 11.0651 14.2458 11.3978 14.2999 11.7242L15.1148 16.2342C15.1836 16.6164 15.0222 17.0033 14.7023 17.2242C14.3888 17.4533 13.9717 17.4808 13.6298 17.2975L9.56989 15.18C9.42872 15.1048 9.27197 15.0645 9.11155 15.0599H8.86314C8.77697 15.0728 8.69264 15.1002 8.61564 15.1424L4.5548 17.27C4.35405 17.3708 4.12672 17.4066 3.90397 17.3708C3.3613 17.2682 2.99922 16.7512 3.08814 16.2058L3.90397 11.6958C3.95805 11.3667 3.84897 11.0321 3.61155 10.7983L0.301469 7.59C0.0246362 7.32142 -0.0716138 6.91808 0.0548862 6.55417C0.177719 6.19117 0.491219 5.92625 0.869803 5.86667L5.42564 5.20575C5.77214 5.17 6.07647 4.95917 6.2323 4.6475L8.2398 0.531667C8.28747 0.44 8.34889 0.355667 8.42314 0.284167L8.50564 0.22C8.54872 0.172333 8.59822 0.132917 8.65322 0.100833L8.75314 0.0641667L8.90897 0H9.29489C9.63955 0.03575 9.94297 0.242 10.1016 0.55L12.1356 4.6475C12.2823 4.94725 12.5674 5.15533 12.8965 5.20575L17.4523 5.86667C17.8373 5.92167 18.1591 6.1875 18.2865 6.55417C18.4066 6.92175 18.303 7.32508 18.0206 7.59L14.5923 10.835Z" fill="white"/>
</svg>
